<?xml version="1.0" encoding="UTF-8"?>
<svg xmlns="http://www.w3.org/2000/svg" xmlns:xlink="http://www.w3.org/1999/xlink" viewBox="0 0 100 100" width="100px" height="100px">
<g id="surface18069274">
<path style=" stroke:none;fill-rule:nonzero;fill:rgb(52.156866%,52.156866%,80.000001%);fill-opacity:1;" d="M 76.25 96.25 C 87.296875 96.25 96.25 87.296875 96.25 76.25 L 96.25 23.75 C 96.25 12.703125 87.296875 3.75 76.25 3.75 L 23.75 3.75 C 12.703125 3.75 3.75 12.703125 3.75 23.75 L 3.75 76.25 C 3.75 87.296875 12.703125 96.25 23.75 96.25 Z M 76.25 96.25 "/>
<path style=" stroke:none;fill-rule:nonzero;fill:rgb(55.29412%,55.29412%,84.705883%);fill-opacity:1;" d="M 8.5 10.828125 C 5.542969 14.316406 3.75 18.820312 3.75 23.75 L 3.75 76.25 C 3.75 87.296875 12.703125 96.25 23.75 96.25 L 76.25 96.25 C 87.296875 96.25 96.25 87.296875 96.25 76.25 L 96.25 23.75 C 96.25 22.492188 96.121094 21.269531 95.898438 20.078125 C 80.335938 10.550781 62.078125 5 42.5 5 C 30.574219 5 19.140625 7.078125 8.5 10.828125 Z M 8.5 10.828125 "/>
<path style=" stroke:none;fill-rule:nonzero;fill:rgb(74.117649%,50.980395%,95.686275%);fill-opacity:1;" d="M 3.761719 23.511719 C 3.761719 23.59375 3.75 23.671875 3.75 23.75 L 3.75 76.25 C 3.75 87.296875 12.703125 96.25 23.75 96.25 L 76.25 96.25 C 87.296875 96.25 96.25 87.296875 96.25 76.25 L 96.25 32.242188 C 81.097656 21.398438 62.550781 15 42.5 15 C 28.664062 15 15.550781 18.066406 3.761719 23.511719 Z M 3.761719 23.511719 "/>
<path style=" stroke:none;fill-rule:nonzero;fill:rgb(92.941177%,45.09804%,95.686275%);fill-opacity:1;" d="M 3.75 34.699219 L 3.75 76.25 C 3.75 87.296875 12.703125 96.25 23.75 96.25 L 76.25 96.25 C 87.296875 96.25 96.25 87.296875 96.25 76.25 L 96.25 44.953125 C 81.808594 32.53125 63.042969 25 42.5 25 C 28.484375 25 15.308594 28.535156 3.75 34.699219 Z M 3.75 34.699219 "/>
<path style=" stroke:none;fill-rule:nonzero;fill:rgb(97.647059%,49.019608%,80.392158%);fill-opacity:1;" d="M 42.5 35 C 28.238281 35 14.964844 39.160156 3.75 46.273438 L 3.75 76.25 C 3.75 87.296875 12.703125 96.25 23.75 96.25 L 76.25 96.25 C 87.296875 96.25 96.25 87.296875 96.25 76.25 L 96.25 58.914062 C 82.984375 44.246094 63.835938 35 42.5 35 Z M 42.5 35 "/>
<path style=" stroke:none;fill-rule:nonzero;fill:rgb(98.823529%,61.176473%,58.431375%);fill-opacity:1;" d="M 42.5 45 C 27.847656 45 14.40625 50.082031 3.75 58.527344 L 3.75 76.25 C 3.75 87.296875 12.703125 96.25 23.75 96.25 L 76.25 96.25 C 87.296875 96.25 96.25 87.296875 96.25 76.25 L 96.25 75.65625 C 85.359375 57.3125 65.378906 45 42.5 45 Z M 42.5 45 "/>
<path style=" stroke:none;fill-rule:nonzero;fill:rgb(100%,67.450982%,60.000002%);fill-opacity:1;" d="M 42.5 55 C 27.136719 55 13.351562 61.628906 3.75 72.148438 L 3.75 76.25 C 3.75 87.296875 12.703125 96.25 23.75 96.25 L 76.25 96.25 C 82.414062 96.25 87.921875 93.457031 91.589844 89.074219 C 84.121094 69.183594 64.996094 55 42.5 55 Z M 42.5 55 "/>
<path style=" stroke:none;fill-rule:nonzero;fill:rgb(100%,76.862746%,61.176473%);fill-opacity:1;" d="M 76.25 96.25 C 78.640625 96.25 80.925781 95.808594 83.050781 95.039062 C 77.71875 77.664062 61.621094 65 42.5 65 C 27.035156 65 13.519531 73.273438 6.085938 85.621094 C 9.445312 91.941406 16.09375 96.25 23.75 96.25 Z M 76.25 96.25 "/>
<path style=" stroke:none;fill-rule:nonzero;fill:rgb(100%,87.058824%,55.29412%);fill-opacity:1;" d="M 42.5 75 C 29.65625 75 18.566406 82.460938 13.289062 93.273438 C 16.335938 95.148438 19.910156 96.25 23.75 96.25 L 72.957031 96.25 C 68.375 83.855469 56.488281 75 42.5 75 Z M 42.5 75 "/>
<path style=" stroke:none;fill-rule:nonzero;fill:rgb(100%,96.470588%,62.352943%);fill-opacity:1;" d="M 42.5 85 C 34.203125 85 27.015625 89.53125 23.117188 96.21875 C 23.328125 96.226562 23.539062 96.25 23.75 96.25 L 61.898438 96.25 C 58.007812 89.546875 50.808594 85 42.5 85 Z M 42.5 85 "/>
<path style=" stroke:none;fill-rule:nonzero;fill:rgb(54.509807%,45.882353%,63.137257%);fill-opacity:1;" d="M 77.5 5 C 87.148438 5 95 12.851562 95 22.5 L 95 77.5 C 95 87.148438 87.148438 95 77.5 95 L 22.5 95 C 12.851562 95 5 87.148438 5 77.5 L 5 22.5 C 5 12.851562 12.851562 5 22.5 5 L 77.5 5 M 77.5 2.5 L 22.5 2.5 C 11.453125 2.5 2.5 11.453125 2.5 22.5 L 2.5 77.5 C 2.5 88.546875 11.453125 97.5 22.5 97.5 L 77.5 97.5 C 88.546875 97.5 97.5 88.546875 97.5 77.5 L 97.5 22.5 C 97.5 11.453125 88.546875 2.5 77.5 2.5 Z M 77.5 2.5 "/>
<path style=" stroke:none;fill-rule:nonzero;fill:rgb(100%,100%,100%);fill-opacity:1;" d="M 68.75 27.5 C 66.679688 27.5 65 29.179688 65 31.25 C 65 33.320312 66.679688 35 68.75 35 C 70.820312 35 72.5 33.320312 72.5 31.25 C 72.5 29.179688 70.820312 27.5 68.75 27.5 Z M 68.75 27.5 "/>
<path style="fill:none;stroke-width:8.6;stroke-linecap:butt;stroke-linejoin:miter;stroke:rgb(100%,100%,100%);stroke-opacity:1;stroke-miterlimit:10;" d="M 86 60.2 C 71.749531 60.2 60.2 71.749531 60.2 86 C 60.2 100.250469 71.749531 111.8 86 111.8 C 100.250469 111.8 111.8 100.250469 111.8 86 C 111.8 71.749531 100.250469 60.2 86 60.2 Z M 86 60.2 " transform="matrix(0.581395,0,0,0.581395,0,0)"/>
<path style="fill:none;stroke-width:8.6;stroke-linecap:butt;stroke-linejoin:miter;stroke:rgb(100%,100%,100%);stroke-opacity:1;stroke-miterlimit:10;" d="M 141.9 62.35 C 141.9 44.538594 127.461406 30.1 109.65 30.1 C 100.290781 30.1 71.709219 30.1 62.35 30.1 C 44.538594 30.1 30.1 44.538594 30.1 62.35 C 30.1 71.709219 30.1 100.290781 30.1 109.65 C 30.1 127.461406 44.538594 141.9 62.35 141.9 C 71.709219 141.9 100.290781 141.9 109.65 141.9 C 127.461406 141.9 141.9 127.461406 141.9 109.65 C 141.9 100.290781 141.9 71.709219 141.9 62.35 Z M 141.9 62.35 " transform="matrix(0.581395,0,0,0.581395,0,0)"/>
</g>
</svg>
